name rise49.25peak52.1432fall72.8391.mot
datacolumns 19
datarows 14
range 20.26491900000000 20.28658900000000
endheader
time	ground_force1_vx	ground_force1_vy	ground_force1_vz	ground_force1_px	ground_force1_py	ground_force1_pz	ground_force2_vx	ground_force2_vy	ground_force2_vz	ground_force2_px	ground_force2_py	ground_force2_pz	ground_torque1_x	ground_torque1_y	ground_torque1_z	ground_torque2_x	ground_torque2_y	ground_torque2_z	
20.26491900000000	-10.42251600000000	45.60803900000000	-11.31225500000000	0.32681900000000	0.00000000000000	0.08080700000000	-58.45765800000000	770.99796600000002	-47.24730700000000	0.11513100000000	0.00000000000000	-0.08050400000000	0.00000000000000	-7.19124400000000	0.00000000000000	0.00000000000000	-18.39492200000000	0.00000000000000	
20.26659000000000	-11.09600500000000	52.14822000000000	-12.38317600000000	0.32946300000000	0.00000000000000	0.08189600000000	-59.43342000000000	767.75995200000000	-46.69110900000000	0.11412500000000	0.00000000000000	-0.08034900000000	0.00000000000000	-7.93948100000000	0.00000000000000	0.00000000000000	-18.38355200000000	0.00000000000000	
20.26825100000000	-11.55416400000000	58.63576300000000	-13.29899600000000	0.33194400000000	0.00000000000000	0.08290600000000	-60.42008300000000	764.43270700000005	-46.11705500000000	0.11311000000000	0.00000000000000	-0.08019000000000	0.00000000000000	-8.60336000000000	0.00000000000000	0.00000000000000	-18.37380900000000	0.00000000000000	
20.26992300000000	-11.78429900000000	65.00898900000000	-14.04318900000000	0.33428400000000	0.00000000000000	0.08384800000000	-61.41610500000000	761.01349100000004	-45.52518600000000	0.11208900000000	0.00000000000000	-0.08002800000000	0.00000000000000	-9.17161800000000	0.00000000000000	0.00000000000000	-18.36548600000000	0.00000000000000	
20.27158600000000	-11.78461500000000	71.23135700000000	-14.60880600000000	0.33650400000000	0.00000000000000	0.08472900000000	-62.41984200000000	757.49945900000000	-44.91557600000000	0.11106100000000	0.00000000000000	-0.07986400000000	0.00000000000000	-9.63880100000000	0.00000000000000	0.00000000000000	-18.35835800000000	0.00000000000000	
20.27325800000000	-11.56306100000000	77.29081600000001	-14.99771100000000	0.33861800000000	0.00000000000000	0.08555400000000	-63.42955200000000	753.88766799999996	-44.28833700000000	0.11002800000000	0.00000000000000	-0.07969600000000	0.00000000000000	-10.00487400000000	0.00000000000000	0.00000000000000	-18.35218300000000	0.00000000000000	
20.27492200000000	-11.13555000000000	83.19723700000000	-15.21923200000000	0.34064100000000	0.00000000000000	0.08632900000000	-64.44339100000001	750.17509099999995	-43.64361100000000	0.10899000000000	0.00000000000000	-0.07952600000000	0.00000000000000	-10.27446100000000	0.00000000000000	0.00000000000000	-18.34670400000000	0.00000000000000	
20.27658600000000	-10.52383600000000	88.97848300000000	-15.28841700000000	0.34258400000000	0.00000000000000	0.08705800000000	-65.45942500000000	746.35862999999995	-42.98158400000000	0.10795000000000	0.00000000000000	-0.07935200000000	0.00000000000000	-10.45582900000000	0.00000000000000	0.00000000000000	-18.34164900000000	0.00000000000000	
20.27825200000000	-9.75325800000000	94.67566100000001	-15.22413400000000	0.34445600000000	0.00000000000000	0.08774600000000	-66.47562900000000	742.43512499999997	-42.30247600000000	0.10690600000000	0.00000000000000	-0.07917600000000	0.00000000000000	-10.55974600000000	0.00000000000000	0.00000000000000	-18.33673200000000	0.00000000000000	
20.27992000000000	-8.85057300000000	100.33811000000000	-15.04717900000000	0.34626500000000	0.00000000000000	0.08839600000000	-67.48989200000000	738.40137000000004	-41.60655200000000	0.10586200000000	0.00000000000000	-0.07899700000000	0.00000000000000	-10.59833100000000	0.00000000000000	0.00000000000000	-18.33165300000000	0.00000000000000	
20.28158500000000	-7.84204200000000	106.01855800000000	-14.77855200000000	0.34801700000000	0.00000000000000	0.08901000000000	-68.50002400000000	734.25412900000003	-40.89411500000000	0.10481700000000	0.00000000000000	-0.07881500000000	0.00000000000000	-10.58399300000000	0.00000000000000	0.00000000000000	-18.32609700000000	0.00000000000000	
20.28325500000000	-6.75186300000000	111.76882200000000	-14.43801200000000	0.34972000000000	0.00000000000000	0.08959200000000	-69.50375900000000	729.99014599999998	-40.16551300000000	0.10377400000000	0.00000000000000	-0.07863000000000	0.00000000000000	-10.52852400000000	0.00000000000000	0.00000000000000	-18.31974000000000	0.00000000000000	
20.28492200000000	-5.60103000000000	117.63628600000000	-14.04297100000000	0.35137600000000	0.00000000000000	0.09014300000000	-70.49876200000000	725.60616500000003	-39.42113500000000	0.10273200000000	0.00000000000000	-0.07844200000000	0.00000000000000	-10.44238900000000	0.00000000000000	0.00000000000000	-18.31224400000000	0.00000000000000	
20.28658900000000	-4.40662600000000	123.66129100000001	-13.60775700000000	0.35298900000000	0.00000000000000	0.09066600000000	-71.48263300000001	721.09894299999996	-38.66141700000000	0.10169400000000	0.00000000000000	-0.07825100000000	0.00000000000000	-10.33424500000000	0.00000000000000	0.00000000000000	-18.30326100000000	0.00000000000000	
